<svg xmlns="http://www.w3.org/2000/svg" xmlns:xlink="http://www.w3.org/1999/xlink" width="400" zoomAndPan="magnify" viewBox="0 0 300 299.999988" height="400" preserveAspectRatio="xMidYMid meet" version="1.0"><defs><g/></defs><g fill="#000000" fill-opacity="1"><g transform="translate(67.251876, 249.849919)"><g><path d="M 128.90625 6.515625 C 123.40625 4.171875 117.523438 1.539062 111.265625 -1.375 C 105.003906 -4.289062 98.453125 -7.335938 91.609375 -10.515625 C 74.753906 -18.359375 60.863281 -25.320312 49.9375 -31.40625 C 39.007812 -37.5 30.457031 -43.175781 24.28125 -48.4375 C 18.101562 -53.695312 13.804688 -58.953125 11.390625 -64.203125 C 8.972656 -69.460938 7.765625 -75.179688 7.765625 -81.359375 C 7.765625 -92.703125 11.554688 -101.75 19.140625 -108.5 C 26.734375 -115.257812 36.625 -118.640625 48.8125 -118.640625 C 55.320312 -118.640625 61.367188 -117.679688 66.953125 -115.765625 C 72.546875 -113.847656 77.429688 -111.222656 81.609375 -107.890625 L 81.609375 -136.921875 C 75.929688 -136.585938 70.296875 -136.296875 64.703125 -136.046875 C 59.117188 -135.796875 53.738281 -135.671875 48.5625 -135.671875 C 34.375 -135.671875 23.316406 -137.753906 15.390625 -141.921875 C 7.460938 -146.097656 1.582031 -152.691406 -2.25 -161.703125 L -1 -163.703125 L 145.1875 -163.703125 L 155.6875 -146.1875 L 153.9375 -144.1875 C 147.4375 -143.34375 140.140625 -142.460938 132.046875 -141.546875 C 123.953125 -140.628906 115.484375 -139.753906 106.640625 -138.921875 L 106.640625 -101.625 C 114.304688 -97.789062 120.976562 -93.867188 126.65625 -89.859375 L 126.65625 -109.640625 L 128.90625 -110.890625 L 151.6875 -101.375 L 151.6875 -25.53125 C 151.6875 -20.351562 152.726562 -16.222656 154.8125 -13.140625 C 156.90625 -10.054688 160.453125 -7.09375 165.453125 -4.25 L 176.46875 2 L 173.96875 6.515625 C 163.789062 1.671875 154.40625 -2.914062 145.8125 -7.25 C 137.21875 -11.59375 130.832031 -14.929688 126.65625 -17.265625 L 126.65625 -76.84375 C 120.644531 -80.019531 113.972656 -83.109375 106.640625 -86.109375 L 106.640625 -26.03125 C 106.640625 -21.019531 107.347656 -17.265625 108.765625 -14.765625 C 110.179688 -12.265625 113.140625 -9.597656 117.640625 -6.765625 L 131.421875 2 Z M 37.296875 -71.34375 C 37.296875 -60.320312 42.882812 -50.554688 54.0625 -42.046875 C 53.5625 -44.890625 53.3125 -47.644531 53.3125 -50.3125 C 53.3125 -56.988281 55.4375 -62.660156 59.6875 -67.328125 C 63.945312 -72.003906 69.914062 -74.34375 77.59375 -74.34375 C 78.257812 -74.34375 78.925781 -74.34375 79.59375 -74.34375 C 80.257812 -74.34375 80.929688 -74.257812 81.609375 -74.09375 L 81.609375 -91.859375 C 75.097656 -94.035156 69.335938 -95.125 64.328125 -95.125 C 55.816406 -95.125 49.179688 -93.035156 44.421875 -88.859375 C 39.671875 -84.691406 37.296875 -78.851562 37.296875 -71.34375 Z M 37.296875 -71.34375 "/></g></g></g></svg>