<svg xmlns="http://www.w3.org/2000/svg" xmlns:xlink="http://www.w3.org/1999/xlink" width="400" zoomAndPan="magnify" viewBox="0 0 300 299.999988" height="400" preserveAspectRatio="xMidYMid meet" version="1.0"><defs><g/><clipPath id="9071c4b7a3"><path d="M 30 30 L 270 30 L 270 270 L 30 270 Z M 30 30 " clip-rule="nonzero"/></clipPath><clipPath id="dd6fc368a6"><path d="M 150 30 C 83.726562 30 30 83.726562 30 150 C 30 216.273438 83.726562 270 150 270 C 216.273438 270 270 216.273438 270 150 C 270 83.726562 216.273438 30 150 30 Z M 150 30 " clip-rule="nonzero"/></clipPath></defs><g clip-path="url(#9071c4b7a3)"><g clip-path="url(#dd6fc368a6)"><path fill="#ffffff" d="M 30 30 L 270 30 L 270 270 L 30 270 Z M 30 30 " fill-opacity="1" fill-rule="nonzero"/><path stroke-linecap="butt" transform="matrix(0.75, 0, 0, 0.75, 30.000004, 29.999998)" fill="none" stroke-linejoin="miter" d="M 160.000008 0.00000326667 C 71.635418 0.00000326667 -0.00000473333 71.635426 -0.00000473333 160.000016 C -0.00000473333 248.364607 71.635418 320.000029 160.000008 320.000029 C 248.364599 320.000029 320.000021 248.364607 320.000021 160.000016 C 320.000021 71.635426 248.364599 0.00000326667 160.000008 0.00000326667 Z M 160.000008 0.00000326667 " stroke="#000000" stroke-width="56" stroke-opacity="1" stroke-miterlimit="4"/></g></g><g fill="#000000" fill-opacity="1"><g transform="translate(120.574626, 223.71201)"><g><path d="M 29.421875 -122.339844 C 24.46875 -122.339844 20.4375 -123.839844 17.335938 -126.847656 C 14.230469 -129.851562 12.679688 -133.730469 12.679688 -138.484375 C 12.679688 -143.175781 14.230469 -147.019531 17.335938 -150.027344 C 20.4375 -153.03125 24.46875 -154.535156 29.421875 -154.535156 C 32.722656 -154.535156 35.660156 -153.839844 38.238281 -152.453125 C 40.8125 -151.066406 42.808594 -149.167969 44.230469 -146.757812 C 45.648438 -144.347656 46.359375 -141.589844 46.359375 -138.484375 C 46.359375 -135.382812 45.648438 -132.609375 44.230469 -130.164062 C 42.808594 -127.722656 40.8125 -125.804688 38.238281 -124.417969 C 35.660156 -123.03125 32.722656 -122.339844 29.421875 -122.339844 Z M 15.75 0 L 15.75 -109.261719 L 43.191406 -109.261719 L 43.191406 0 Z M 15.75 0 "/></g></g></g></svg>