<svg xmlns="http://www.w3.org/2000/svg" xmlns:xlink="http://www.w3.org/1999/xlink" width="400" zoomAndPan="magnify" viewBox="0 0 300 299.999988" height="400" preserveAspectRatio="xMidYMid meet" version="1.0"><defs><g/></defs><g fill="#000000" fill-opacity="1"><g transform="translate(29.015629, 213.749986)"><g><path d="M 27.8125 -24.453125 C 23.550781 -24.453125 19.609375 -25.515625 15.984375 -27.640625 C 12.359375 -29.773438 9.453125 -32.597656 7.265625 -36.109375 C 5.085938 -39.628906 4 -43.46875 4 -47.625 C 4 -53.476562 6.019531 -58.269531 10.0625 -62 C 14.113281 -65.726562 19.28125 -67.59375 25.5625 -67.59375 C 31.21875 -67.59375 36.226562 -66.765625 40.59375 -65.109375 C 44.957031 -63.460938 49.113281 -60.9375 53.0625 -57.53125 L 53.0625 -87.25 C 49.539062 -86.289062 45.78125 -85.597656 41.78125 -85.171875 C 37.789062 -84.753906 33.503906 -84.546875 28.921875 -84.546875 C 14.003906 -84.546875 4.363281 -90.773438 0 -103.234375 L 0.796875 -104.515625 L 67.59375 -104.515625 L 69.03125 -103.234375 L 69.03125 -16.296875 C 69.03125 -12.992188 69.695312 -10.359375 71.03125 -8.390625 C 72.363281 -6.421875 74.628906 -4.53125 77.828125 -2.71875 L 84.859375 1.28125 L 83.265625 4.15625 C 76.765625 1.0625 70.769531 -1.867188 65.28125 -4.640625 C 59.789062 -7.410156 55.71875 -9.539062 53.0625 -11.03125 L 53.0625 -47.140625 C 48.800781 -49.804688 44.21875 -51.617188 39.3125 -52.578125 L 39.3125 -37.875 C 39.3125 -33.289062 38.457031 -29.90625 36.75 -27.71875 C 35.050781 -25.539062 32.070312 -24.453125 27.8125 -24.453125 Z M 27.8125 -24.453125 "/></g></g></g><g fill="#000000" fill-opacity="1"><g transform="translate(26.139053, 215.667707)"><g><path d="M 13.109375 -75.265625 C 11.191406 -75.265625 9.40625 -75.957031 7.75 -77.34375 C 6.101562 -78.726562 5.28125 -80.859375 5.28125 -83.734375 C 5.28125 -86.929688 6.265625 -89.832031 8.234375 -92.4375 C 10.203125 -95.050781 13.425781 -96.519531 17.90625 -96.84375 L 21.25 -91.734375 C 18.269531 -91.628906 15.925781 -90.882812 14.21875 -89.5 C 12.519531 -88.113281 11.671875 -86.515625 11.671875 -84.703125 C 12.304688 -85.023438 13 -85.1875 13.75 -85.1875 C 15.238281 -85.1875 16.460938 -84.757812 17.421875 -83.90625 C 18.378906 -83.050781 18.859375 -81.929688 18.859375 -80.546875 C 18.859375 -78.835938 18.296875 -77.53125 17.171875 -76.625 C 16.054688 -75.71875 14.703125 -75.265625 13.109375 -75.265625 Z M 13.109375 -75.265625 "/></g></g></g><g fill="#000000" fill-opacity="1"><g transform="translate(106.84237, 213.749986)"><g><path d="M 19.015625 -2.078125 C 15.710938 -2.078125 13.046875 -3.195312 11.015625 -5.4375 C 8.992188 -7.675781 7.984375 -10.550781 7.984375 -14.0625 C 7.984375 -17.46875 8.992188 -20.289062 11.015625 -22.53125 C 13.046875 -24.769531 15.710938 -25.890625 19.015625 -25.890625 C 22.210938 -25.890625 24.820312 -24.769531 26.84375 -22.53125 C 28.875 -20.289062 29.890625 -17.46875 29.890625 -14.0625 C 29.890625 -10.550781 28.875 -7.675781 26.84375 -5.4375 C 24.820312 -3.195312 22.210938 -2.078125 19.015625 -2.078125 Z M 19.015625 -2.078125 "/></g></g></g><g fill="#000000" fill-opacity="1"><g transform="translate(144.716989, 213.749986)"><g><path d="M 62.171875 4.15625 C 54.285156 -1.164062 46.375 -6.890625 38.4375 -13.015625 C 30.5 -19.148438 23.226562 -25.410156 16.625 -31.796875 C 10.019531 -38.191406 4.582031 -44.265625 0.3125 -50.015625 L 3.203125 -52.578125 C 4.898438 -51.085938 6.441406 -50.34375 7.828125 -50.34375 C 9.960938 -50.34375 11.640625 -51.25 12.859375 -53.0625 C 14.085938 -54.875 15.3125 -56.953125 16.53125 -59.296875 C 17.757812 -61.640625 19.359375 -63.710938 21.328125 -65.515625 C 23.304688 -67.328125 26 -68.234375 29.40625 -68.234375 C 29.613281 -68.234375 29.851562 -68.234375 30.125 -68.234375 C 30.394531 -68.234375 30.632812 -68.234375 30.84375 -68.234375 L 30.84375 -85.015625 C 28.925781 -84.703125 27.007812 -84.546875 25.09375 -84.546875 C 20.832031 -84.546875 16.890625 -85.394531 13.265625 -87.09375 C 9.640625 -88.800781 6.65625 -91.09375 4.3125 -93.96875 C 1.96875 -96.84375 0.53125 -99.929688 0 -103.234375 L 0.796875 -104.515625 L 78.140625 -104.515625 L 79.59375 -103.234375 L 79.59375 -16.296875 C 79.59375 -12.992188 80.253906 -10.359375 81.578125 -8.390625 C 82.910156 -6.421875 85.175781 -4.53125 88.375 -2.71875 L 95.40625 1.28125 L 93.8125 4.15625 C 87.3125 1.0625 81.316406 -1.867188 75.828125 -4.640625 C 70.335938 -7.410156 66.265625 -9.539062 63.609375 -11.03125 L 63.609375 -42.671875 C 60.941406 -44.585938 58.171875 -46.15625 55.296875 -47.375 C 52.421875 -48.601562 49.597656 -49.539062 46.828125 -50.1875 L 46.828125 -44.90625 C 46.828125 -39.6875 45.757812 -35.367188 43.625 -31.953125 C 41.5 -28.546875 38.515625 -26.257812 34.671875 -25.09375 C 39.046875 -20.613281 43.707031 -16.160156 48.65625 -11.734375 C 53.613281 -7.316406 58.914062 -3.085938 64.5625 0.953125 Z M 46.828125 -64.71875 C 49.703125 -63.550781 52.601562 -61.847656 55.53125 -59.609375 C 58.457031 -57.367188 61.148438 -54.863281 63.609375 -52.09375 L 63.609375 -90.9375 L 46.828125 -90.9375 Z M 46.828125 -64.71875 "/></g></g></g><g fill="#000000" fill-opacity="1"><g transform="translate(168.368869, 213.749986)"><g><path d="M 22.6875 -110.75 C 19.8125 -112.5625 16.695312 -114.71875 13.34375 -117.21875 C 9.988281 -119.726562 6.609375 -122.257812 3.203125 -124.8125 L 3.203125 -127.046875 C 6.285156 -129.609375 9.101562 -131.898438 11.65625 -133.921875 C 14.21875 -135.941406 16.9375 -138.070312 19.8125 -140.3125 L 20.78125 -140.3125 C 24.082031 -138.070312 27.222656 -135.78125 30.203125 -133.4375 C 33.179688 -131.09375 36.378906 -128.535156 39.796875 -125.765625 L 39.796875 -123.6875 C 37.128906 -121.34375 34.300781 -119.050781 31.3125 -116.8125 C 28.332031 -114.582031 25.726562 -112.5625 23.5 -110.75 Z M 14.859375 -123.53125 C 15.390625 -123.101562 16 -122.625 16.6875 -122.09375 C 17.382812 -121.5625 18.109375 -120.976562 18.859375 -120.34375 C 20.566406 -121.507812 22.242188 -122.675781 23.890625 -123.84375 C 25.546875 -125.019531 27.066406 -126.140625 28.453125 -127.203125 C 27.703125 -127.742188 27.003906 -128.28125 26.359375 -128.8125 C 25.722656 -129.34375 25.035156 -129.875 24.296875 -130.40625 C 22.585938 -129.34375 20.957031 -128.222656 19.40625 -127.046875 C 17.863281 -125.878906 16.347656 -124.707031 14.859375 -123.53125 Z M 14.859375 -123.53125 "/></g></g></g><g fill="#000000" fill-opacity="1"><g transform="translate(233.091096, 213.749986)"><g><path d="M 19.015625 -2.078125 C 15.710938 -2.078125 13.046875 -3.195312 11.015625 -5.4375 C 8.992188 -7.675781 7.984375 -10.550781 7.984375 -14.0625 C 7.984375 -17.46875 8.992188 -20.289062 11.015625 -22.53125 C 13.046875 -24.769531 15.710938 -25.890625 19.015625 -25.890625 C 22.210938 -25.890625 24.820312 -24.769531 26.84375 -22.53125 C 28.875 -20.289062 29.890625 -17.46875 29.890625 -14.0625 C 29.890625 -10.550781 28.875 -7.675781 26.84375 -5.4375 C 24.820312 -3.195312 22.210938 -2.078125 19.015625 -2.078125 Z M 19.015625 -2.078125 "/></g></g></g></svg>