<svg xmlns="http://www.w3.org/2000/svg" xmlns:xlink="http://www.w3.org/1999/xlink" width="400" zoomAndPan="magnify" viewBox="0 0 300 299.999988" height="400" preserveAspectRatio="xMidYMid meet" version="1.0"><defs><g/></defs><g fill="#000000" fill-opacity="1"><g transform="translate(66.260718, 249.849904)"><g><path d="M 32.546875 -121.65625 C 28.367188 -121.65625 24.066406 -122.65625 19.640625 -124.65625 C 15.222656 -126.65625 11.257812 -128.945312 7.75 -131.53125 C 4.25 -134.125 1.664062 -136.335938 0 -138.171875 L 2 -141.421875 C 5.175781 -140.085938 7.804688 -139.128906 9.890625 -138.546875 C 11.972656 -137.960938 13.847656 -137.671875 15.515625 -137.671875 C 21.191406 -137.671875 24.03125 -140.09375 24.03125 -144.9375 C 24.03125 -149.769531 18.609375 -154.441406 7.765625 -158.953125 L 9.515625 -163.703125 C 13.515625 -162.203125 16.769531 -161.453125 19.28125 -161.453125 C 24.613281 -161.453125 27.28125 -164.039062 27.28125 -169.21875 C 27.28125 -172.050781 25.863281 -174.632812 23.03125 -176.96875 C 20.195312 -179.300781 15.359375 -181.890625 8.515625 -184.734375 L 10.265625 -188.984375 C 22.273438 -185.984375 31.617188 -181.894531 38.296875 -176.71875 C 44.972656 -171.550781 48.3125 -165.796875 48.3125 -159.453125 C 48.3125 -152.273438 45.140625 -147.851562 38.796875 -146.1875 C 43.972656 -142.675781 46.5625 -138.585938 46.5625 -133.921875 C 46.5625 -130.242188 45.179688 -127.28125 42.421875 -125.03125 C 39.671875 -122.78125 36.378906 -121.65625 32.546875 -121.65625 Z M 106.125 0 C 98.625 0 90.867188 -1.457031 82.859375 -4.375 C 74.847656 -7.300781 67.921875 -11.015625 62.078125 -15.515625 C 56.066406 -20.191406 51.054688 -25.613281 47.046875 -31.78125 C 43.046875 -37.957031 41.046875 -44.132812 41.046875 -50.3125 C 41.046875 -60.65625 44.050781 -68.707031 50.0625 -74.46875 C 56.070312 -80.226562 64.164062 -83.109375 74.34375 -83.109375 C 80.519531 -83.109375 86.691406 -81.394531 92.859375 -77.96875 C 99.035156 -74.550781 104.460938 -69.835938 109.140625 -63.828125 L 106.640625 -59.328125 C 101.628906 -61.828125 97.203125 -63.078125 93.359375 -63.078125 C 78.515625 -63.078125 71.09375 -55.066406 71.09375 -39.046875 C 71.09375 -33.203125 73.46875 -28.363281 78.21875 -24.53125 C 82.976562 -20.695312 88.613281 -18.78125 95.125 -18.78125 C 104.46875 -18.78125 112.054688 -22.570312 117.890625 -30.15625 C 123.734375 -37.75 126.65625 -47.390625 126.65625 -59.078125 C 126.65625 -68.585938 123.941406 -77.722656 118.515625 -86.484375 C 113.097656 -95.242188 104.128906 -103.960938 91.609375 -112.640625 C 82.265625 -119.316406 74.960938 -124.65625 69.703125 -128.65625 C 64.453125 -132.664062 60.78125 -136.128906 58.6875 -139.046875 C 56.601562 -141.960938 55.5625 -145.09375 55.5625 -148.4375 C 55.5625 -154.28125 57.394531 -158.703125 61.0625 -161.703125 C 64.738281 -164.703125 69.414062 -166.203125 75.09375 -166.203125 C 80.101562 -166.203125 85.398438 -164.785156 90.984375 -161.953125 C 96.578125 -159.117188 101.960938 -155.28125 107.140625 -150.4375 L 104.625 -146.6875 C 100.789062 -148.519531 97.457031 -149.4375 94.625 -149.4375 C 91.445312 -149.4375 88.773438 -148.519531 86.609375 -146.6875 C 84.441406 -144.851562 83.359375 -142.515625 83.359375 -139.671875 C 83.359375 -137.171875 84.109375 -134.914062 85.609375 -132.90625 C 87.109375 -130.90625 89.691406 -128.613281 93.359375 -126.03125 C 97.035156 -123.445312 102.046875 -119.816406 108.390625 -115.140625 C 121.898438 -105.460938 132.285156 -96.953125 139.546875 -89.609375 C 146.804688 -82.265625 151.8125 -75.171875 154.5625 -68.328125 C 157.320312 -61.492188 158.703125 -53.988281 158.703125 -45.8125 C 158.703125 -36.96875 156.445312 -29.082031 151.9375 -22.15625 C 147.4375 -15.226562 141.265625 -9.800781 133.421875 -5.875 C 125.578125 -1.957031 116.476562 0 106.125 0 Z M 106.125 0 "/></g></g></g></svg>