<svg xmlns="http://www.w3.org/2000/svg" xmlns:xlink="http://www.w3.org/1999/xlink" width="400" zoomAndPan="magnify" viewBox="0 0 300 299.999988" height="400" preserveAspectRatio="xMidYMid meet" version="1.0"><defs><g/></defs><g fill="#000000" fill-opacity="1"><g transform="translate(76.778001, 249.849933)"><g><path d="M 57.578125 -46.8125 C 48.566406 -46.8125 39.675781 -49.601562 30.90625 -55.1875 C 22.144531 -60.78125 12.675781 -68.5 2.5 -78.34375 L 5.75 -82.109375 C 13.257812 -76.597656 19.8125 -72.878906 25.40625 -70.953125 C 31 -69.035156 36.296875 -68.078125 41.296875 -68.078125 C 56.148438 -68.078125 63.578125 -75.253906 63.578125 -89.609375 L 63.578125 -102.875 C 61.242188 -104.039062 58.863281 -104.832031 56.4375 -105.25 C 54.019531 -105.664062 51.394531 -106.046875 48.5625 -106.390625 C 48.5625 -104.878906 48.601562 -103.5 48.6875 -102.25 C 48.769531 -101 48.8125 -99.957031 48.8125 -99.125 C 48.8125 -89.78125 44.640625 -85.109375 36.296875 -85.109375 C 30.453125 -85.109375 25.109375 -87.023438 20.265625 -90.859375 C 15.429688 -94.703125 13.015625 -99.289062 13.015625 -104.625 C 13.015625 -110.300781 15.097656 -114.890625 19.265625 -118.390625 C 23.441406 -121.898438 28.785156 -123.65625 35.296875 -123.65625 C 39.460938 -123.65625 44.050781 -123.03125 49.0625 -121.78125 C 54.070312 -120.53125 58.910156 -118.566406 63.578125 -115.890625 L 63.578125 -137.421875 C 59.910156 -137.085938 56.195312 -136.796875 52.4375 -136.546875 C 48.6875 -136.296875 45.140625 -136.171875 41.796875 -136.171875 C 30.617188 -136.171875 21.609375 -138.421875 14.765625 -142.921875 C 7.921875 -147.429688 3 -153.691406 0 -161.703125 L 1 -163.703125 L 130.65625 -163.703125 L 132.421875 -161.703125 L 132.421875 -25.78125 C 132.421875 -20.269531 132.753906 -15.972656 133.421875 -12.890625 C 134.085938 -9.804688 135.585938 -7.21875 137.921875 -5.125 C 140.253906 -3.039062 143.84375 -0.582031 148.6875 2.25 L 157.453125 7.265625 L 154.9375 11.515625 C 136.914062 3.835938 118.976562 -3.503906 101.125 -10.515625 C 83.269531 -17.523438 65.164062 -24.363281 46.8125 -31.03125 L 48.8125 -35.546875 C 52.144531 -34.378906 55.5625 -33.378906 59.0625 -32.546875 C 62.570312 -31.710938 66.164062 -31.296875 69.84375 -31.296875 C 82.6875 -31.296875 92.15625 -34.710938 98.25 -41.546875 C 104.34375 -48.390625 107.390625 -59.320312 107.390625 -74.34375 L 107.390625 -83.859375 C 101.710938 -87.359375 95.453125 -90.523438 88.609375 -93.359375 L 88.609375 -81.09375 C 88.609375 -69.082031 85.6875 -60.363281 79.84375 -54.9375 C 74.007812 -49.519531 66.585938 -46.8125 57.578125 -46.8125 Z M 107.390625 -95.125 L 107.390625 -142.421875 L 88.609375 -142.421875 L 88.609375 -107.140625 C 93.953125 -104.128906 100.210938 -100.125 107.390625 -95.125 Z M 107.390625 -95.125 "/></g></g></g></svg>